<mxfile host="app.diagrams.net" agent="Mozilla/5.0 (Windows NT 10.0; Win64; x64) AppleWebKit/537.36 (KHTML, like Gecko) Chrome/131.0.0.0 Safari/537.36" version="26.0.2">
  <diagram name="Page-1" id="GUZWcVjmx146-lCtSMem">
    <mxGraphModel dx="2294" dy="1933" grid="1" gridSize="10" guides="1" tooltips="1" connect="1" arrows="1" fold="1" page="1" pageScale="1" pageWidth="850" pageHeight="1100" math="0" shadow="0">
      <root>
        <mxCell id="0" />
        <mxCell id="1" parent="0" />
        <mxCell id="rd4bBnqbvGdaPlypdURc-7" value="us-east-1" style="points=[[0,0],[0.25,0],[0.5,0],[0.75,0],[1,0],[1,0.25],[1,0.5],[1,0.75],[1,1],[0.75,1],[0.5,1],[0.25,1],[0,1],[0,0.75],[0,0.5],[0,0.25]];outlineConnect=0;gradientColor=none;html=1;whiteSpace=wrap;fontSize=12;fontStyle=0;container=1;pointerEvents=0;collapsible=0;recursiveResize=0;shape=mxgraph.aws4.group;grIcon=mxgraph.aws4.group_region;strokeColor=default;fillColor=none;verticalAlign=top;align=left;spacingLeft=30;fontColor=#147EBA;dashed=1;" vertex="1" parent="1">
          <mxGeometry x="-130" y="40" width="1380" height="860" as="geometry" />
        </mxCell>
        <mxCell id="rd4bBnqbvGdaPlypdURc-8" value="&lt;font style=&quot;color: rgb(0, 0, 0);&quot;&gt;main-vpc&lt;/font&gt;" style="points=[[0,0],[0.25,0],[0.5,0],[0.75,0],[1,0],[1,0.25],[1,0.5],[1,0.75],[1,1],[0.75,1],[0.5,1],[0.25,1],[0,1],[0,0.75],[0,0.5],[0,0.25]];outlineConnect=0;gradientColor=none;html=1;whiteSpace=wrap;fontSize=12;fontStyle=0;container=1;pointerEvents=0;collapsible=0;recursiveResize=0;shape=mxgraph.aws4.group;grIcon=mxgraph.aws4.group_vpc2;strokeColor=#8C4FFF;fillColor=none;verticalAlign=top;align=left;spacingLeft=30;fontColor=#AAB7B8;dashed=0;" vertex="1" parent="1">
          <mxGeometry x="-70" y="110" width="1290" height="760" as="geometry" />
        </mxCell>
        <mxCell id="rd4bBnqbvGdaPlypdURc-18" value="" style="group" vertex="1" connectable="0" parent="1">
          <mxGeometry x="-20" y="250" width="380" height="590" as="geometry" />
        </mxCell>
        <mxCell id="rd4bBnqbvGdaPlypdURc-4" value="private_a" style="points=[[0,0],[0.25,0],[0.5,0],[0.75,0],[1,0],[1,0.25],[1,0.5],[1,0.75],[1,1],[0.75,1],[0.5,1],[0.25,1],[0,1],[0,0.75],[0,0.5],[0,0.25]];outlineConnect=0;gradientColor=none;html=1;whiteSpace=wrap;fontSize=12;fontStyle=0;container=1;pointerEvents=0;collapsible=0;recursiveResize=0;shape=mxgraph.aws4.group;grIcon=mxgraph.aws4.group_security_group;grStroke=0;strokeColor=#00A4A6;fillColor=#E6F6F7;verticalAlign=top;align=left;spacingLeft=30;fontColor=#147EBA;dashed=0;" vertex="1" parent="rd4bBnqbvGdaPlypdURc-18">
          <mxGeometry x="30" y="330" width="320" height="230" as="geometry" />
        </mxCell>
        <mxCell id="rd4bBnqbvGdaPlypdURc-13" value="" style="sketch=0;outlineConnect=0;fontColor=#232F3E;gradientColor=none;fillColor=#8C4FFF;strokeColor=none;dashed=0;verticalLabelPosition=bottom;verticalAlign=top;align=center;html=1;fontSize=12;fontStyle=0;aspect=fixed;pointerEvents=1;shape=mxgraph.aws4.route_table;" vertex="1" parent="rd4bBnqbvGdaPlypdURc-4">
          <mxGeometry x="220" y="60" width="78" height="76" as="geometry" />
        </mxCell>
        <mxCell id="rd4bBnqbvGdaPlypdURc-11" value="rt_private_a" style="text;strokeColor=none;align=center;fillColor=none;html=1;verticalAlign=middle;whiteSpace=wrap;rounded=0;" vertex="1" parent="rd4bBnqbvGdaPlypdURc-4">
          <mxGeometry x="229" y="136" width="60" height="30" as="geometry" />
        </mxCell>
        <mxCell id="rd4bBnqbvGdaPlypdURc-5" value="public_a" style="points=[[0,0],[0.25,0],[0.5,0],[0.75,0],[1,0],[1,0.25],[1,0.5],[1,0.75],[1,1],[0.75,1],[0.5,1],[0.25,1],[0,1],[0,0.75],[0,0.5],[0,0.25]];outlineConnect=0;gradientColor=none;html=1;whiteSpace=wrap;fontSize=12;fontStyle=0;container=1;pointerEvents=0;collapsible=0;recursiveResize=0;shape=mxgraph.aws4.group;grIcon=mxgraph.aws4.group_security_group;grStroke=0;strokeColor=#7AA116;fillColor=#F2F6E8;verticalAlign=top;align=left;spacingLeft=30;fontColor=#248814;dashed=0;" vertex="1" parent="rd4bBnqbvGdaPlypdURc-18">
          <mxGeometry x="30" y="50" width="320" height="230" as="geometry" />
        </mxCell>
        <mxCell id="rd4bBnqbvGdaPlypdURc-1" value="" style="sketch=0;outlineConnect=0;fontColor=#232F3E;gradientColor=none;fillColor=#ED7100;strokeColor=none;dashed=0;verticalLabelPosition=bottom;verticalAlign=top;align=center;html=1;fontSize=12;fontStyle=0;aspect=fixed;pointerEvents=1;shape=mxgraph.aws4.elastic_ip_address;" vertex="1" parent="rd4bBnqbvGdaPlypdURc-5">
          <mxGeometry x="230" y="50" width="48" height="20" as="geometry" />
        </mxCell>
        <mxCell id="rd4bBnqbvGdaPlypdURc-9" value="eip_a" style="text;strokeColor=none;align=center;fillColor=none;html=1;verticalAlign=middle;whiteSpace=wrap;rounded=0;" vertex="1" parent="rd4bBnqbvGdaPlypdURc-5">
          <mxGeometry x="170" y="45" width="60" height="30" as="geometry" />
        </mxCell>
        <mxCell id="rd4bBnqbvGdaPlypdURc-2" value="" style="sketch=0;outlineConnect=0;fontColor=#232F3E;gradientColor=none;fillColor=#8C4FFF;strokeColor=none;dashed=0;verticalLabelPosition=bottom;verticalAlign=top;align=center;html=1;fontSize=12;fontStyle=0;aspect=fixed;pointerEvents=1;shape=mxgraph.aws4.nat_gateway;" vertex="1" parent="rd4bBnqbvGdaPlypdURc-5">
          <mxGeometry x="220" y="120" width="78" height="78" as="geometry" />
        </mxCell>
        <mxCell id="rd4bBnqbvGdaPlypdURc-10" value="nat_gw_1a_public" style="text;strokeColor=none;align=center;fillColor=none;html=1;verticalAlign=middle;whiteSpace=wrap;rounded=0;" vertex="1" parent="rd4bBnqbvGdaPlypdURc-5">
          <mxGeometry x="160" y="190" width="60" height="30" as="geometry" />
        </mxCell>
        <mxCell id="rd4bBnqbvGdaPlypdURc-3" value="" style="sketch=0;outlineConnect=0;fontColor=#232F3E;gradientColor=none;fillColor=#8C4FFF;strokeColor=none;dashed=0;verticalLabelPosition=bottom;verticalAlign=top;align=center;html=1;fontSize=12;fontStyle=0;aspect=fixed;pointerEvents=1;shape=mxgraph.aws4.route_table;" vertex="1" parent="rd4bBnqbvGdaPlypdURc-5">
          <mxGeometry x="40" y="77" width="78" height="76" as="geometry" />
        </mxCell>
        <mxCell id="rd4bBnqbvGdaPlypdURc-12" value="rt_public_a" style="text;strokeColor=none;align=center;fillColor=none;html=1;verticalAlign=middle;whiteSpace=wrap;rounded=0;" vertex="1" parent="rd4bBnqbvGdaPlypdURc-5">
          <mxGeometry x="49" y="153" width="60" height="30" as="geometry" />
        </mxCell>
        <mxCell id="rd4bBnqbvGdaPlypdURc-17" value="" style="endArrow=classic;html=1;rounded=0;" edge="1" parent="rd4bBnqbvGdaPlypdURc-5">
          <mxGeometry width="50" height="50" relative="1" as="geometry">
            <mxPoint x="260" y="120" as="sourcePoint" />
            <mxPoint x="260" y="70" as="targetPoint" />
          </mxGeometry>
        </mxCell>
        <mxCell id="rd4bBnqbvGdaPlypdURc-6" value="us-east-1a" style="sketch=0;outlineConnect=0;gradientColor=none;html=1;whiteSpace=wrap;fontSize=12;fontStyle=0;shape=mxgraph.aws4.group;grIcon=mxgraph.aws4.group_availability_zone;strokeColor=#545B64;fillColor=none;verticalAlign=top;align=left;spacingLeft=30;fontColor=#545B64;dashed=1;" vertex="1" parent="rd4bBnqbvGdaPlypdURc-18">
          <mxGeometry width="380" height="590" as="geometry" />
        </mxCell>
        <mxCell id="rd4bBnqbvGdaPlypdURc-14" value="" style="endArrow=classic;html=1;rounded=0;" edge="1" parent="rd4bBnqbvGdaPlypdURc-18">
          <mxGeometry width="50" height="50" relative="1" as="geometry">
            <mxPoint x="290" y="380" as="sourcePoint" />
            <mxPoint x="290" y="250" as="targetPoint" />
          </mxGeometry>
        </mxCell>
        <mxCell id="rd4bBnqbvGdaPlypdURc-47" value="" style="group" vertex="1" connectable="0" parent="1">
          <mxGeometry x="390" y="250" width="380" height="590" as="geometry" />
        </mxCell>
        <mxCell id="rd4bBnqbvGdaPlypdURc-20" value="private_b" style="points=[[0,0],[0.25,0],[0.5,0],[0.75,0],[1,0],[1,0.25],[1,0.5],[1,0.75],[1,1],[0.75,1],[0.5,1],[0.25,1],[0,1],[0,0.75],[0,0.5],[0,0.25]];outlineConnect=0;gradientColor=none;html=1;whiteSpace=wrap;fontSize=12;fontStyle=0;container=0;pointerEvents=0;collapsible=0;recursiveResize=0;shape=mxgraph.aws4.group;grIcon=mxgraph.aws4.group_security_group;grStroke=0;strokeColor=#00A4A6;fillColor=#E6F6F7;verticalAlign=top;align=left;spacingLeft=30;fontColor=#147EBA;dashed=0;" vertex="1" parent="rd4bBnqbvGdaPlypdURc-47">
          <mxGeometry x="30" y="330" width="320" height="230" as="geometry" />
        </mxCell>
        <mxCell id="rd4bBnqbvGdaPlypdURc-23" value="public_b" style="points=[[0,0],[0.25,0],[0.5,0],[0.75,0],[1,0],[1,0.25],[1,0.5],[1,0.75],[1,1],[0.75,1],[0.5,1],[0.25,1],[0,1],[0,0.75],[0,0.5],[0,0.25]];outlineConnect=0;gradientColor=none;html=1;whiteSpace=wrap;fontSize=12;fontStyle=0;container=0;pointerEvents=0;collapsible=0;recursiveResize=0;shape=mxgraph.aws4.group;grIcon=mxgraph.aws4.group_security_group;grStroke=0;strokeColor=#7AA116;fillColor=#F2F6E8;verticalAlign=top;align=left;spacingLeft=30;fontColor=#248814;dashed=0;" vertex="1" parent="rd4bBnqbvGdaPlypdURc-47">
          <mxGeometry x="30" y="50" width="320" height="230" as="geometry" />
        </mxCell>
        <mxCell id="rd4bBnqbvGdaPlypdURc-31" value="us-east-1b" style="sketch=0;outlineConnect=0;gradientColor=none;html=1;whiteSpace=wrap;fontSize=12;fontStyle=0;shape=mxgraph.aws4.group;grIcon=mxgraph.aws4.group_availability_zone;strokeColor=#545B64;fillColor=none;verticalAlign=top;align=left;spacingLeft=30;fontColor=#545B64;dashed=1;container=0;" vertex="1" parent="rd4bBnqbvGdaPlypdURc-47">
          <mxGeometry width="380" height="590" as="geometry" />
        </mxCell>
        <mxCell id="rd4bBnqbvGdaPlypdURc-32" value="" style="endArrow=classic;html=1;rounded=0;" edge="1" parent="rd4bBnqbvGdaPlypdURc-47">
          <mxGeometry width="50" height="50" relative="1" as="geometry">
            <mxPoint x="290" y="380" as="sourcePoint" />
            <mxPoint x="290" y="250" as="targetPoint" />
          </mxGeometry>
        </mxCell>
        <mxCell id="rd4bBnqbvGdaPlypdURc-21" value="" style="sketch=0;outlineConnect=0;fontColor=#232F3E;gradientColor=none;fillColor=#8C4FFF;strokeColor=none;dashed=0;verticalLabelPosition=bottom;verticalAlign=top;align=center;html=1;fontSize=12;fontStyle=0;aspect=fixed;pointerEvents=1;shape=mxgraph.aws4.route_table;container=0;" vertex="1" parent="rd4bBnqbvGdaPlypdURc-47">
          <mxGeometry x="250" y="390" width="78" height="76" as="geometry" />
        </mxCell>
        <mxCell id="rd4bBnqbvGdaPlypdURc-22" value="rt_private_b" style="text;strokeColor=none;align=center;fillColor=none;html=1;verticalAlign=middle;whiteSpace=wrap;rounded=0;container=0;" vertex="1" parent="rd4bBnqbvGdaPlypdURc-47">
          <mxGeometry x="259" y="466" width="60" height="30" as="geometry" />
        </mxCell>
        <mxCell id="rd4bBnqbvGdaPlypdURc-24" value="" style="sketch=0;outlineConnect=0;fontColor=#232F3E;gradientColor=none;fillColor=#ED7100;strokeColor=none;dashed=0;verticalLabelPosition=bottom;verticalAlign=top;align=center;html=1;fontSize=12;fontStyle=0;aspect=fixed;pointerEvents=1;shape=mxgraph.aws4.elastic_ip_address;container=0;" vertex="1" parent="rd4bBnqbvGdaPlypdURc-47">
          <mxGeometry x="260" y="100" width="48" height="20" as="geometry" />
        </mxCell>
        <mxCell id="rd4bBnqbvGdaPlypdURc-25" value="eip_b" style="text;strokeColor=none;align=center;fillColor=none;html=1;verticalAlign=middle;whiteSpace=wrap;rounded=0;container=0;" vertex="1" parent="rd4bBnqbvGdaPlypdURc-47">
          <mxGeometry x="200" y="95" width="60" height="30" as="geometry" />
        </mxCell>
        <mxCell id="rd4bBnqbvGdaPlypdURc-26" value="" style="sketch=0;outlineConnect=0;fontColor=#232F3E;gradientColor=none;fillColor=#8C4FFF;strokeColor=none;dashed=0;verticalLabelPosition=bottom;verticalAlign=top;align=center;html=1;fontSize=12;fontStyle=0;aspect=fixed;pointerEvents=1;shape=mxgraph.aws4.nat_gateway;container=0;" vertex="1" parent="rd4bBnqbvGdaPlypdURc-47">
          <mxGeometry x="250" y="170" width="78" height="78" as="geometry" />
        </mxCell>
        <mxCell id="rd4bBnqbvGdaPlypdURc-27" value="nat_gw_1b_public" style="text;strokeColor=none;align=center;fillColor=none;html=1;verticalAlign=middle;whiteSpace=wrap;rounded=0;container=0;" vertex="1" parent="rd4bBnqbvGdaPlypdURc-47">
          <mxGeometry x="190" y="240" width="60" height="30" as="geometry" />
        </mxCell>
        <mxCell id="rd4bBnqbvGdaPlypdURc-28" value="" style="sketch=0;outlineConnect=0;fontColor=#232F3E;gradientColor=none;fillColor=#8C4FFF;strokeColor=none;dashed=0;verticalLabelPosition=bottom;verticalAlign=top;align=center;html=1;fontSize=12;fontStyle=0;aspect=fixed;pointerEvents=1;shape=mxgraph.aws4.route_table;container=0;" vertex="1" parent="rd4bBnqbvGdaPlypdURc-47">
          <mxGeometry x="70" y="127" width="78" height="76" as="geometry" />
        </mxCell>
        <mxCell id="rd4bBnqbvGdaPlypdURc-29" value="rt_public_b" style="text;strokeColor=none;align=center;fillColor=none;html=1;verticalAlign=middle;whiteSpace=wrap;rounded=0;container=0;" vertex="1" parent="rd4bBnqbvGdaPlypdURc-47">
          <mxGeometry x="79" y="203" width="60" height="30" as="geometry" />
        </mxCell>
        <mxCell id="rd4bBnqbvGdaPlypdURc-30" value="" style="endArrow=classic;html=1;rounded=0;" edge="1" parent="rd4bBnqbvGdaPlypdURc-47">
          <mxGeometry width="50" height="50" relative="1" as="geometry">
            <mxPoint x="290" y="170" as="sourcePoint" />
            <mxPoint x="290" y="120" as="targetPoint" />
          </mxGeometry>
        </mxCell>
        <mxCell id="rd4bBnqbvGdaPlypdURc-53" value="" style="endArrow=none;html=1;rounded=0;" edge="1" parent="rd4bBnqbvGdaPlypdURc-47">
          <mxGeometry width="50" height="50" relative="1" as="geometry">
            <mxPoint x="290" y="95" as="sourcePoint" />
            <mxPoint x="290" y="-30" as="targetPoint" />
          </mxGeometry>
        </mxCell>
        <mxCell id="rd4bBnqbvGdaPlypdURc-48" value="" style="group" vertex="1" connectable="0" parent="1">
          <mxGeometry x="800" y="250" width="380" height="590" as="geometry" />
        </mxCell>
        <mxCell id="rd4bBnqbvGdaPlypdURc-34" value="private_c" style="points=[[0,0],[0.25,0],[0.5,0],[0.75,0],[1,0],[1,0.25],[1,0.5],[1,0.75],[1,1],[0.75,1],[0.5,1],[0.25,1],[0,1],[0,0.75],[0,0.5],[0,0.25]];outlineConnect=0;gradientColor=none;html=1;whiteSpace=wrap;fontSize=12;fontStyle=0;container=0;pointerEvents=0;collapsible=0;recursiveResize=0;shape=mxgraph.aws4.group;grIcon=mxgraph.aws4.group_security_group;grStroke=0;strokeColor=#00A4A6;fillColor=#E6F6F7;verticalAlign=top;align=left;spacingLeft=30;fontColor=#147EBA;dashed=0;" vertex="1" parent="rd4bBnqbvGdaPlypdURc-48">
          <mxGeometry x="30" y="330" width="320" height="230" as="geometry" />
        </mxCell>
        <mxCell id="rd4bBnqbvGdaPlypdURc-37" value="public_c" style="points=[[0,0],[0.25,0],[0.5,0],[0.75,0],[1,0],[1,0.25],[1,0.5],[1,0.75],[1,1],[0.75,1],[0.5,1],[0.25,1],[0,1],[0,0.75],[0,0.5],[0,0.25]];outlineConnect=0;gradientColor=none;html=1;whiteSpace=wrap;fontSize=12;fontStyle=0;container=0;pointerEvents=0;collapsible=0;recursiveResize=0;shape=mxgraph.aws4.group;grIcon=mxgraph.aws4.group_security_group;grStroke=0;strokeColor=#7AA116;fillColor=#F2F6E8;verticalAlign=top;align=left;spacingLeft=30;fontColor=#248814;dashed=0;" vertex="1" parent="rd4bBnqbvGdaPlypdURc-48">
          <mxGeometry x="30" y="50" width="320" height="230" as="geometry" />
        </mxCell>
        <mxCell id="rd4bBnqbvGdaPlypdURc-45" value="us-east-1c" style="sketch=0;outlineConnect=0;gradientColor=none;html=1;whiteSpace=wrap;fontSize=12;fontStyle=0;shape=mxgraph.aws4.group;grIcon=mxgraph.aws4.group_availability_zone;strokeColor=#545B64;fillColor=none;verticalAlign=top;align=left;spacingLeft=30;fontColor=#545B64;dashed=1;container=0;" vertex="1" parent="rd4bBnqbvGdaPlypdURc-48">
          <mxGeometry width="380" height="590" as="geometry" />
        </mxCell>
        <mxCell id="rd4bBnqbvGdaPlypdURc-46" value="" style="endArrow=classic;html=1;rounded=0;" edge="1" parent="rd4bBnqbvGdaPlypdURc-48">
          <mxGeometry width="50" height="50" relative="1" as="geometry">
            <mxPoint x="290" y="380" as="sourcePoint" />
            <mxPoint x="290" y="250" as="targetPoint" />
          </mxGeometry>
        </mxCell>
        <mxCell id="rd4bBnqbvGdaPlypdURc-35" value="" style="sketch=0;outlineConnect=0;fontColor=#232F3E;gradientColor=none;fillColor=#8C4FFF;strokeColor=none;dashed=0;verticalLabelPosition=bottom;verticalAlign=top;align=center;html=1;fontSize=12;fontStyle=0;aspect=fixed;pointerEvents=1;shape=mxgraph.aws4.route_table;container=0;" vertex="1" parent="rd4bBnqbvGdaPlypdURc-48">
          <mxGeometry x="250" y="390" width="78" height="76" as="geometry" />
        </mxCell>
        <mxCell id="rd4bBnqbvGdaPlypdURc-36" value="rt_private_c" style="text;strokeColor=none;align=center;fillColor=none;html=1;verticalAlign=middle;whiteSpace=wrap;rounded=0;container=0;" vertex="1" parent="rd4bBnqbvGdaPlypdURc-48">
          <mxGeometry x="259" y="466" width="60" height="30" as="geometry" />
        </mxCell>
        <mxCell id="rd4bBnqbvGdaPlypdURc-38" value="" style="sketch=0;outlineConnect=0;fontColor=#232F3E;gradientColor=none;fillColor=#ED7100;strokeColor=none;dashed=0;verticalLabelPosition=bottom;verticalAlign=top;align=center;html=1;fontSize=12;fontStyle=0;aspect=fixed;pointerEvents=1;shape=mxgraph.aws4.elastic_ip_address;container=0;" vertex="1" parent="rd4bBnqbvGdaPlypdURc-48">
          <mxGeometry x="260" y="100" width="48" height="20" as="geometry" />
        </mxCell>
        <mxCell id="rd4bBnqbvGdaPlypdURc-39" value="eip_c" style="text;strokeColor=none;align=center;fillColor=none;html=1;verticalAlign=middle;whiteSpace=wrap;rounded=0;container=0;" vertex="1" parent="rd4bBnqbvGdaPlypdURc-48">
          <mxGeometry x="200" y="95" width="60" height="30" as="geometry" />
        </mxCell>
        <mxCell id="rd4bBnqbvGdaPlypdURc-40" value="" style="sketch=0;outlineConnect=0;fontColor=#232F3E;gradientColor=none;fillColor=#8C4FFF;strokeColor=none;dashed=0;verticalLabelPosition=bottom;verticalAlign=top;align=center;html=1;fontSize=12;fontStyle=0;aspect=fixed;pointerEvents=1;shape=mxgraph.aws4.nat_gateway;container=0;" vertex="1" parent="rd4bBnqbvGdaPlypdURc-48">
          <mxGeometry x="250" y="170" width="78" height="78" as="geometry" />
        </mxCell>
        <mxCell id="rd4bBnqbvGdaPlypdURc-41" value="nat_gw_1c_public" style="text;strokeColor=none;align=center;fillColor=none;html=1;verticalAlign=middle;whiteSpace=wrap;rounded=0;container=0;" vertex="1" parent="rd4bBnqbvGdaPlypdURc-48">
          <mxGeometry x="190" y="240" width="60" height="30" as="geometry" />
        </mxCell>
        <mxCell id="rd4bBnqbvGdaPlypdURc-42" value="" style="sketch=0;outlineConnect=0;fontColor=#232F3E;gradientColor=none;fillColor=#8C4FFF;strokeColor=none;dashed=0;verticalLabelPosition=bottom;verticalAlign=top;align=center;html=1;fontSize=12;fontStyle=0;aspect=fixed;pointerEvents=1;shape=mxgraph.aws4.route_table;container=0;" vertex="1" parent="rd4bBnqbvGdaPlypdURc-48">
          <mxGeometry x="70" y="127" width="78" height="76" as="geometry" />
        </mxCell>
        <mxCell id="rd4bBnqbvGdaPlypdURc-43" value="rt_public_c" style="text;strokeColor=none;align=center;fillColor=none;html=1;verticalAlign=middle;whiteSpace=wrap;rounded=0;container=0;" vertex="1" parent="rd4bBnqbvGdaPlypdURc-48">
          <mxGeometry x="79" y="203" width="60" height="30" as="geometry" />
        </mxCell>
        <mxCell id="rd4bBnqbvGdaPlypdURc-44" value="" style="endArrow=classic;html=1;rounded=0;" edge="1" parent="rd4bBnqbvGdaPlypdURc-48">
          <mxGeometry width="50" height="50" relative="1" as="geometry">
            <mxPoint x="290" y="170" as="sourcePoint" />
            <mxPoint x="290" y="120" as="targetPoint" />
          </mxGeometry>
        </mxCell>
        <mxCell id="rd4bBnqbvGdaPlypdURc-54" value="" style="endArrow=none;html=1;rounded=0;" edge="1" parent="rd4bBnqbvGdaPlypdURc-48">
          <mxGeometry width="50" height="50" relative="1" as="geometry">
            <mxPoint x="287.8899999999999" y="95" as="sourcePoint" />
            <mxPoint x="288" y="-30" as="targetPoint" />
          </mxGeometry>
        </mxCell>
        <mxCell id="rd4bBnqbvGdaPlypdURc-49" value="" style="sketch=0;outlineConnect=0;fontColor=#232F3E;gradientColor=none;fillColor=#8C4FFF;strokeColor=none;dashed=0;verticalLabelPosition=bottom;verticalAlign=top;align=center;html=1;fontSize=12;fontStyle=0;aspect=fixed;pointerEvents=1;shape=mxgraph.aws4.internet_gateway;fillStyle=auto;" vertex="1" parent="1">
          <mxGeometry x="650" y="82" width="68" height="68" as="geometry" />
        </mxCell>
        <mxCell id="rd4bBnqbvGdaPlypdURc-50" value="Internet gateway" style="text;strokeColor=none;align=center;fillColor=none;html=1;verticalAlign=middle;whiteSpace=wrap;rounded=0;" vertex="1" parent="1">
          <mxGeometry x="718" y="60" width="60" height="30" as="geometry" />
        </mxCell>
        <mxCell id="rd4bBnqbvGdaPlypdURc-52" value="" style="endArrow=none;html=1;rounded=0;" edge="1" parent="1">
          <mxGeometry width="50" height="50" relative="1" as="geometry">
            <mxPoint x="270" y="350" as="sourcePoint" />
            <mxPoint x="270" y="220" as="targetPoint" />
          </mxGeometry>
        </mxCell>
        <mxCell id="rd4bBnqbvGdaPlypdURc-55" value="" style="endArrow=none;html=1;rounded=0;" edge="1" parent="1">
          <mxGeometry width="50" height="50" relative="1" as="geometry">
            <mxPoint x="1090" y="220" as="sourcePoint" />
            <mxPoint x="270" y="220" as="targetPoint" />
          </mxGeometry>
        </mxCell>
        <mxCell id="rd4bBnqbvGdaPlypdURc-56" value="" style="endArrow=classic;html=1;rounded=0;" edge="1" parent="1">
          <mxGeometry width="50" height="50" relative="1" as="geometry">
            <mxPoint x="680" y="239" as="sourcePoint" />
            <mxPoint x="680" y="150" as="targetPoint" />
          </mxGeometry>
        </mxCell>
        <mxCell id="rd4bBnqbvGdaPlypdURc-57" value="" style="endArrow=classic;html=1;rounded=0;startArrow=classic;startFill=1;" edge="1" parent="1" source="rd4bBnqbvGdaPlypdURc-49">
          <mxGeometry width="50" height="50" relative="1" as="geometry">
            <mxPoint x="683.23" y="69" as="sourcePoint" />
            <mxPoint x="683.23" y="-20" as="targetPoint" />
          </mxGeometry>
        </mxCell>
        <mxCell id="rd4bBnqbvGdaPlypdURc-58" value="" style="outlineConnect=0;dashed=0;verticalLabelPosition=bottom;verticalAlign=top;align=center;html=1;shape=mxgraph.aws3.internet_2;fillColor=#D2D3D3;gradientColor=none;" vertex="1" parent="1">
          <mxGeometry x="644.25" y="-80" width="79.5" height="54" as="geometry" />
        </mxCell>
        <mxCell id="rd4bBnqbvGdaPlypdURc-59" value="Public Internet" style="text;strokeColor=none;align=center;fillColor=none;html=1;verticalAlign=middle;whiteSpace=wrap;rounded=0;" vertex="1" parent="1">
          <mxGeometry x="723.75" y="-68" width="60" height="30" as="geometry" />
        </mxCell>
        <mxCell id="rd4bBnqbvGdaPlypdURc-60" value="" style="whiteSpace=wrap;html=1;fillColor=none;strokeColor=#FF0000;" vertex="1" parent="1">
          <mxGeometry x="-150" y="-90" width="1420" height="1010" as="geometry" />
        </mxCell>
      </root>
    </mxGraphModel>
  </diagram>
</mxfile>
